<svg width="778" height="316" viewBox="0 0 778 316" fill="none" xmlns="http://www.w3.org/2000/svg">
<g filter="url(#filter0_d_204_2)">
<g filter="url(#filter1_d_204_2)">
<path d="M200.645 129.408C198.366 129.408 196.331 129.896 194.541 130.873C192.751 131.817 191.221 133.201 189.951 135.023C188.682 136.846 187.705 139.076 187.021 141.713C186.37 144.317 186.045 147.279 186.045 150.6C186.045 155.092 186.615 158.868 187.754 161.928C188.893 164.988 190.618 167.299 192.93 168.861C195.273 170.424 198.203 171.205 201.719 171.205C204.909 171.205 207.969 170.766 210.898 169.887C213.861 169.008 216.839 167.95 219.834 166.713V183.021C216.676 184.421 213.438 185.43 210.117 186.049C206.829 186.667 203.33 186.977 199.619 186.977C191.872 186.977 185.524 185.447 180.576 182.387C175.661 179.294 172.031 175.014 169.688 169.545C167.376 164.076 166.221 157.729 166.221 150.502C166.221 145.098 166.969 140.15 168.467 135.658C169.997 131.166 172.227 127.276 175.156 123.988C178.086 120.668 181.699 118.113 185.996 116.322C190.326 114.499 195.273 113.588 200.84 113.588C204.29 113.588 207.92 113.995 211.729 114.809C215.57 115.59 219.313 116.859 222.959 118.617L217.051 133.803C214.447 132.566 211.81 131.524 209.141 130.678C206.471 129.831 203.639 129.408 200.645 129.408ZM295.469 114.613L272.08 186H249.375L226.084 114.613H247.764L257.48 150.795C257.839 152.162 258.245 153.92 258.701 156.068C259.189 158.184 259.629 160.3 260.02 162.416C260.443 164.532 260.703 166.257 260.801 167.592C260.931 166.257 261.175 164.548 261.533 162.465C261.891 160.382 262.282 158.298 262.705 156.215C263.161 154.099 263.584 152.357 263.975 150.99L273.887 114.613H295.469ZM329.209 114.613H354.111C364.43 114.613 371.787 116.143 376.182 119.203C380.576 122.263 382.773 126.658 382.773 132.387C382.773 135.512 382.204 138.165 381.064 140.346C379.958 142.527 378.542 144.252 376.816 145.521C375.124 146.791 373.382 147.654 371.592 148.109V148.598C373.545 149.086 375.482 149.9 377.402 151.039C379.355 152.146 380.967 153.822 382.236 156.068C383.538 158.282 384.189 161.293 384.189 165.102C384.189 169.431 383.083 173.158 380.869 176.283C378.688 179.408 375.563 181.817 371.494 183.51C367.425 185.17 362.591 186 356.992 186H329.209V114.613ZM348.496 142.006H354.307C357.497 142.006 359.743 141.355 361.045 140.053C362.347 138.718 362.998 137.107 362.998 135.219C362.998 133.266 362.249 131.785 360.752 130.775C359.287 129.734 357.008 129.213 353.916 129.213H348.496V142.006ZM348.496 156.117V171.107H355.283C358.636 171.107 360.98 170.391 362.314 168.959C363.649 167.494 364.316 165.671 364.316 163.49C364.316 162.221 364.023 161.033 363.438 159.926C362.884 158.786 361.924 157.875 360.557 157.191C359.189 156.475 357.301 156.117 354.893 156.117H348.496ZM449.277 130.678V186H434.873L432.48 179.115H431.357C430.218 180.971 428.77 182.484 427.012 183.656C425.286 184.796 423.366 185.626 421.25 186.146C419.134 186.7 416.937 186.977 414.658 186.977C411.045 186.977 407.773 186.277 404.844 184.877C401.947 183.477 399.635 181.28 397.91 178.285C396.217 175.29 395.371 171.433 395.371 166.713V130.678H414.463V160.902C414.463 164.483 414.967 167.217 415.977 169.105C417.018 170.961 418.711 171.889 421.055 171.889C423.464 171.889 425.319 171.238 426.621 169.936C427.956 168.633 428.883 166.713 429.404 164.174C429.925 161.635 430.186 158.542 430.186 154.896V130.678H449.277ZM481.65 130.678V186H462.559V130.678H481.65ZM472.178 108.412C474.912 108.412 477.288 108.982 479.307 110.121C481.357 111.26 482.383 113.523 482.383 116.908C482.383 120.196 481.357 122.426 479.307 123.598C477.288 124.737 474.912 125.307 472.178 125.307C469.378 125.307 466.986 124.737 465 123.598C463.047 122.426 462.07 120.196 462.07 116.908C462.07 113.523 463.047 111.26 465 110.121C466.986 108.982 469.378 108.412 472.178 108.412ZM514.072 186H494.98V110.023H514.072V186ZM544.492 186.977C538.796 186.977 534.108 184.551 530.43 179.701C526.751 174.851 524.912 167.755 524.912 158.412C524.912 148.972 526.8 141.827 530.576 136.977C534.352 132.126 539.235 129.701 545.225 129.701C547.699 129.701 549.831 130.059 551.621 130.775C553.411 131.492 554.958 132.468 556.26 133.705C557.594 134.91 558.75 136.277 559.727 137.807H560.117C559.889 136.407 559.678 134.486 559.482 132.045C559.287 129.571 559.189 127.162 559.189 124.818V110.023H578.428V186H564.023L559.922 179.018H559.189C558.311 180.482 557.204 181.817 555.869 183.021C554.567 184.226 552.972 185.186 551.084 185.902C549.229 186.618 547.031 186.977 544.492 186.977ZM552.305 171.889C555.365 171.889 557.513 170.928 558.75 169.008C560.02 167.055 560.703 164.092 560.801 160.121V158.607C560.801 154.245 560.182 150.909 558.945 148.598C557.741 146.254 555.462 145.082 552.109 145.082C549.831 145.082 547.943 146.189 546.445 148.402C544.948 150.616 544.199 154.05 544.199 158.705C544.199 163.295 544.948 166.648 546.445 168.764C547.975 170.847 549.928 171.889 552.305 171.889ZM616.562 129.701C621.934 129.701 626.572 130.645 630.479 132.533C634.385 134.389 637.396 137.188 639.512 140.932C641.628 144.675 642.686 149.363 642.686 154.994V163.49H608.555C608.717 166.387 609.792 168.764 611.777 170.619C613.796 172.475 616.758 173.402 620.664 173.402C624.115 173.402 627.272 173.061 630.137 172.377C633.034 171.693 636.012 170.635 639.072 169.203V182.924C636.403 184.324 633.49 185.349 630.332 186C627.174 186.651 623.187 186.977 618.369 186.977C612.803 186.977 607.822 185.984 603.428 183.998C599.033 182.012 595.566 178.936 593.027 174.77C590.521 170.603 589.268 165.248 589.268 158.705C589.268 152.064 590.407 146.612 592.686 142.348C594.964 138.051 598.154 134.877 602.256 132.826C606.357 130.743 611.126 129.701 616.562 129.701ZM617.246 142.689C615 142.689 613.112 143.406 611.582 144.838C610.085 146.238 609.206 148.451 608.945 151.479H625.352C625.319 149.851 624.993 148.37 624.375 147.035C623.757 145.701 622.845 144.643 621.641 143.861C620.469 143.08 619.004 142.689 617.246 142.689ZM686.875 129.701C687.917 129.701 689.007 129.783 690.146 129.945C691.286 130.076 692.132 130.189 692.686 130.287L690.977 148.305C690.358 148.142 689.561 148.012 688.584 147.914C687.607 147.784 686.24 147.719 684.482 147.719C683.278 147.719 681.992 147.833 680.625 148.061C679.258 148.288 677.956 148.777 676.719 149.525C675.514 150.242 674.521 151.348 673.74 152.846C672.959 154.311 672.568 156.296 672.568 158.803V186H653.477V130.678H667.686L670.664 139.516H671.592C672.601 137.693 673.887 136.049 675.449 134.584C677.044 133.087 678.818 131.898 680.771 131.02C682.757 130.141 684.792 129.701 686.875 129.701Z" fill="white"/>
</g>
<path d="M122.837 117.889H22.1635V148.751H122.837V117.889Z" fill="#EBEBEB"/>
<path d="M122.837 148.752H22.1635V198.186H122.837V148.752Z" fill="#A8C3EA"/>
<path d="M120.165 113.597H102.241V104.818C102.241 100.287 99.8654 97 96.5931 97H50.1168C46.8446 97 44.4695 100.289 44.4695 104.818V113.597H24.8353C22.7581 113.6 20.7668 114.424 19.298 115.89C17.8293 117.355 17.0028 119.342 17 121.415V194.781C17.003 196.853 17.8295 198.84 19.2982 200.305C20.767 201.771 22.7582 202.595 24.8353 202.598H120.165C122.242 202.595 124.233 201.771 125.702 200.305C127.17 198.84 127.997 196.853 128 194.781V121.417C127.998 119.344 127.172 117.357 125.703 115.891C124.234 114.425 122.243 113.6 120.165 113.597ZM51.5948 104.818C51.5942 104.58 51.6108 104.342 51.6444 104.107H95.0673C95.1008 104.342 95.1176 104.58 95.117 104.818V113.597H51.5948V104.818ZM120.877 194.781C120.877 194.969 120.802 195.15 120.668 195.283C120.535 195.416 120.354 195.491 120.165 195.491H24.8353C24.6464 195.491 24.4653 195.416 24.3317 195.283C24.1981 195.15 24.1231 194.969 24.1229 194.781V152.477H57.5382V154.61C57.5382 154.834 57.5823 155.056 57.6682 155.263C57.7541 155.47 57.88 155.658 58.0388 155.817C58.1976 155.975 58.3862 156.101 58.5937 156.187C58.8012 156.272 59.0236 156.317 59.2482 156.317H87.4618C87.6867 156.317 87.9091 156.273 88.1167 156.187C88.3242 156.101 88.5126 155.975 88.6717 155.817C88.8302 155.658 88.9564 155.47 89.0426 155.263C89.1281 155.056 89.1724 154.834 89.1724 154.61V152.477H120.877V194.781ZM120.877 145.367H24.1229V121.417C24.1231 121.229 24.1981 121.048 24.3317 120.915C24.4653 120.781 24.6464 120.706 24.8353 120.706H120.165C120.354 120.706 120.535 120.781 120.668 120.915C120.802 121.048 120.877 121.229 120.877 121.417V145.367Z" fill="#2A3255"/>
</g>
<defs>
<filter id="filter0_d_204_2" x="-2" y="0" width="782" height="322" filterUnits="userSpaceOnUse" color-interpolation-filters="sRGB">
<feFlood flood-opacity="0" result="BackgroundImageFix"/>
<feColorMatrix in="SourceAlpha" type="matrix" values="0 0 0 0 0 0 0 0 0 0 0 0 0 0 0 0 0 0 127 0" result="hardAlpha"/>
<feOffset dy="4"/>
<feGaussianBlur stdDeviation="1"/>
<feComposite in2="hardAlpha" operator="out"/>
<feColorMatrix type="matrix" values="0 0 0 0 0 0 0 0 0 0 0 0 0 0 0 0 0 0 0.25 0"/>
<feBlend mode="normal" in2="BackgroundImageFix" result="effect1_dropShadow_204_2"/>
<feBlend mode="normal" in="SourceGraphic" in2="effect1_dropShadow_204_2" result="shape"/>
</filter>
<filter id="filter1_d_204_2" x="164.221" y="108.412" width="530.465" height="86.5645" filterUnits="userSpaceOnUse" color-interpolation-filters="sRGB">
<feFlood flood-opacity="0" result="BackgroundImageFix"/>
<feColorMatrix in="SourceAlpha" type="matrix" values="0 0 0 0 0 0 0 0 0 0 0 0 0 0 0 0 0 0 127 0" result="hardAlpha"/>
<feOffset dy="6"/>
<feGaussianBlur stdDeviation="1"/>
<feComposite in2="hardAlpha" operator="out"/>
<feColorMatrix type="matrix" values="0 0 0 0 0 0 0 0 0 0 0 0 0 0 0 0 0 0 0.9 0"/>
<feBlend mode="normal" in2="BackgroundImageFix" result="effect1_dropShadow_204_2"/>
<feBlend mode="normal" in="SourceGraphic" in2="effect1_dropShadow_204_2" result="shape"/>
</filter>
</defs>
</svg>
